<svg width="39" height="53" viewBox="0 0 39 53" fill="none" xmlns="http://www.w3.org/2000/svg">
    <path d="M21.0744 0.776012C20.5571 0.998901 20.6946 0.756344 18.5991 5.29934C17.7348 7.16768 16.2156 10.4717 15.2137 12.635C14.2118 14.7983 13.223 16.9355 13.02 17.3878C12.817 17.8401 11.6514 20.3575 10.4334 22.9928C9.222 25.6216 7.24442 29.9023 6.04608 32.4983C4.84775 35.0943 3.17139 38.7261 2.32011 40.5682C1.00391 43.433 0.774719 43.964 0.774719 44.2262C0.774719 44.7113 1.01046 45.1047 1.44264 45.321C1.67183 45.439 1.87483 45.4456 4.86739 45.4456C8.33143 45.4456 8.29869 45.4456 8.6523 45.0719C8.82255 44.8883 9.39225 43.6624 11.0359 39.9389C11.3764 39.1653 11.73 38.4573 11.8151 38.3656L11.9723 38.2017L18.1211 38.1689L24.2699 38.1361L24.5253 37.9329C25.095 37.4674 25.1736 36.9496 24.7873 36.1367C24.3682 35.2386 22.5216 31.456 22.3906 31.22C22.3251 31.0954 22.1549 30.8988 22.0239 30.7939L21.7816 30.5972L18.7956 30.5644C17.1454 30.5448 15.7572 30.5054 15.6982 30.4792C15.6393 30.453 15.5607 30.3547 15.5214 30.2694C15.4363 30.0793 15.4691 29.9613 15.9536 28.8928C16.1304 28.4929 17.1782 26.1526 18.2783 23.6811C19.3784 21.2097 21.0351 17.4927 21.9584 15.4211C25.5338 7.40368 25.3308 7.87568 25.3308 7.50201C25.3308 7.18734 25.1933 6.86612 23.9491 4.19146C23.1895 2.55912 22.5085 1.15623 22.4299 1.07101C22.0959 0.710457 21.5131 0.585899 21.0744 0.776012Z" fill="white"/>
    <path d="M27.9894 15.5194C27.8453 15.5719 27.6489 15.6964 27.5441 15.7948C27.4197 15.9193 26.8762 17.06 25.8874 19.2889C24.6432 22.0881 24.414 22.6453 24.414 22.9075C24.414 23.1632 24.5319 23.4713 25.0754 24.6448C26.0053 26.6508 28.8472 32.754 29.4235 33.9733C30.4188 36.1104 30.5694 36.4513 30.7397 37.0217C30.9034 37.5592 30.923 37.7034 30.923 38.6278C30.9165 39.4603 30.8903 39.7357 30.7724 40.1683C30.1569 42.4497 28.2906 44.1607 25.966 44.5999C25.7433 44.6392 24.8593 44.6786 24.0015 44.6851L22.4495 44.6982L22.168 44.8949C22.0174 44.9998 21.8275 45.2096 21.7489 45.3472C21.5983 45.6094 21.5983 45.6291 21.5983 48.4742C21.5983 50.3426 21.6245 51.4046 21.6703 51.5226C21.7685 51.7848 22.0435 52.0601 22.3513 52.2043C22.5805 52.3092 22.7901 52.3289 24.0866 52.3289C26.9482 52.3289 28.8145 51.9487 30.8641 50.9522C33.6406 49.6018 35.8146 47.4384 37.1832 44.672C38.1261 42.7578 38.5714 40.8501 38.5714 38.7261C38.5714 37.4871 38.4994 36.7988 38.2571 35.6778C37.9362 34.2224 37.7398 33.7636 34.7276 27.3194C34.3543 26.5262 33.0185 23.6483 31.7481 20.9278C30.4843 18.2072 29.3776 15.9062 29.3056 15.821C29.1222 15.6178 28.6901 15.4211 28.4412 15.4277C28.3364 15.4277 28.1269 15.467 27.9894 15.5194Z" fill="#5541D5"/>
</svg>
